<svg width="156" height="50" viewBox="0 0 156 50" fill="none" xmlns="http://www.w3.org/2000/svg">
<path d="M77.4862 21.6327C77.6707 21.1631 77.8462 20.75 78.0757 20.3639C79.0701 18.6775 80.5617 17.7338 82.4739 17.438C83.7878 17.2348 85.0792 17.3026 86.2985 17.8805C88.1456 18.7565 89.1197 20.2646 89.3717 22.2694C89.4459 22.8609 89.4527 23.4569 89.3222 24.0439C89.1917 24.6377 88.8767 24.9289 88.276 25.0057C88.0263 25.0373 87.7744 25.0531 87.5246 25.0553C86.042 25.0711 84.5572 25.026 83.0746 25.1118C82.4784 25.1456 81.8913 25.2246 81.3716 25.5475C81.2681 25.6107 81.2141 25.5904 81.1623 25.491C81.0071 25.1998 80.9081 24.8928 80.9351 24.5609C80.9599 24.2381 81.1848 24.08 81.4638 23.9784C81.9543 23.7978 82.4717 23.8046 82.9824 23.8001C84.1883 23.791 85.3919 23.7978 86.5977 23.7978C86.6697 23.7978 86.7417 23.8001 86.8137 23.7978C87.3896 23.773 87.5921 23.5698 87.5854 22.9941C87.5741 22.1475 87.4211 21.3257 87.0297 20.5671C86.2085 18.9755 84.7304 18.4449 83.1871 18.6007C81.7045 18.752 80.5819 19.5151 79.9047 20.8155C78.6426 23.2402 78.5144 25.71 79.9452 28.1257C80.5842 29.2049 81.5223 29.9747 82.7979 30.1508C84.7799 30.424 86.438 29.8415 87.5944 28.1167C87.8463 27.7397 87.8801 27.7351 88.2198 28.0444C88.7282 28.505 88.8092 29.0378 88.4515 29.6451C88.0983 30.2479 87.5426 30.6091 86.9195 30.8688C85.6033 31.4151 84.2197 31.5144 82.8182 31.4286C82.033 31.3812 81.2748 31.1893 80.5639 30.8462C79.0588 30.117 78.0914 28.9136 77.5065 27.3717C77.4817 27.3039 77.457 27.2362 77.4323 27.1662C77.3378 27.1956 77.3333 27.2859 77.2995 27.3513C76.1746 29.5638 74.3681 30.7897 71.9204 31.0832C71.0542 31.1871 70.1971 31.1261 69.3646 30.8552C68.9664 30.7265 68.5975 30.5414 68.3185 30.2163C68.017 29.8664 67.8866 29.46 68.0395 29.013C68.197 28.5524 68.5682 28.3266 69.0227 28.2205C69.1217 28.198 69.2027 28.1912 69.2409 28.3357C69.4636 29.1981 70.1026 29.5796 70.917 29.6632C72.728 29.8483 74.1049 29.1055 74.953 27.5139C75.9677 25.6107 75.9744 23.6353 75.043 21.696C74.3726 20.3007 73.1757 19.5354 71.6864 19.2442C70.2443 18.9619 68.8247 19.0793 67.4434 19.5963C67.4344 19.5986 67.4254 19.6009 67.4186 19.6054C66.5457 19.9508 66.5232 19.9801 66.5232 20.9035C66.5232 25.7733 66.5232 30.643 66.5232 35.5127C66.5232 35.6301 66.53 35.7475 66.5345 35.8649C66.5592 36.9915 67.3106 37.4994 68.278 37.5694C68.5997 37.592 68.9259 37.5898 69.2477 37.5762C69.4321 37.5694 69.4839 37.6326 69.4659 37.8042C69.4434 38.0255 69.5581 38.3167 69.4231 38.4544C69.2859 38.5944 68.9979 38.4951 68.7752 38.4951C66.5277 38.4973 64.278 38.4928 62.0305 38.5018C61.8055 38.5018 61.747 38.4409 61.7515 38.2174C61.765 37.5762 61.756 37.5785 62.3994 37.5762C62.6491 37.5739 62.9011 37.5965 63.1508 37.5311C63.9225 37.3324 64.3387 36.8063 64.3387 36.0117C64.3387 31.2503 64.3387 26.4889 64.3387 21.7276C64.3387 21.4295 64.341 21.1315 64.3387 20.8358C64.332 19.7295 63.7178 19.1155 62.6154 19.1087C62.3814 19.1064 62.1474 19.1042 61.9135 19.111C61.7987 19.1132 61.7447 19.0726 61.756 18.9552C61.756 18.9461 61.756 18.9371 61.756 18.9281C61.7177 18.1898 61.7177 18.174 62.4624 18.1943C64.6244 18.253 66.7684 18.0521 68.9147 17.797C70.3208 17.6299 71.7314 17.648 73.1217 17.9754C75.16 18.4495 76.6741 19.576 77.4862 21.6327Z" fill="#0064C8"/>
<path d="M128.592 19.8289C129.188 18.752 130.009 18.0364 131.134 17.7429C132.122 17.4855 133.103 17.569 134.005 18.0838C134.952 18.6256 135.382 19.9554 134.972 20.9668C134.711 21.6125 134.106 21.915 133.523 21.6892C133.215 21.5696 133.168 21.4544 133.303 21.1564C133.483 20.7591 133.55 20.3482 133.451 19.9192C133.281 19.1742 132.68 18.7498 131.847 18.7678C130.952 18.7882 130.304 19.2487 129.793 19.9373C129.109 20.8584 128.792 21.9263 128.669 23.0483C128.516 24.4503 128.628 25.8591 128.601 27.2634C128.59 27.9023 128.624 28.5457 128.574 29.1823C128.48 30.4286 127.949 31.011 126.702 31.0901C125.458 31.1691 124.203 31.1916 122.956 31.0652C121.976 30.9659 121.404 30.3495 121.316 29.3652C121.229 28.3944 121.292 27.4191 121.278 26.4461C121.271 25.8862 121.278 25.3286 121.276 24.7687C121.276 24.6738 121.305 24.57 121.141 24.5722C119.589 24.5903 118.027 24.4955 116.502 24.8951C116.002 25.026 115.53 25.2134 115.116 25.5317C114.295 26.1639 113.96 27.3062 114.272 28.3854C114.554 29.3539 115.406 30.0583 116.441 30.1441C117.564 30.2367 118.54 29.9183 119.285 29.0356C119.391 28.9114 119.458 28.9272 119.566 29.0085C120.079 29.39 120.108 30.1012 119.618 30.5866C119.292 30.9094 118.878 31.0607 118.441 31.1465C117.094 31.4106 115.759 31.4197 114.477 30.853C113.073 30.2322 112.245 29.1959 112.225 27.6043C112.203 25.9517 112.961 24.8093 114.459 24.1478C115.494 23.6918 116.594 23.5337 117.708 23.4434C118.812 23.3554 119.917 23.3802 121.024 23.3847C121.226 23.3847 121.285 23.3328 121.276 23.1296C121.244 22.3914 121.314 21.6531 121.211 20.9149C121.028 19.6212 120.277 18.8356 118.997 18.6166C118.306 18.4992 117.616 18.5172 116.938 18.6979C115.681 19.032 114.882 19.9847 114.718 21.3235C114.662 21.7795 114.639 21.7931 114.203 21.6305C113.53 21.3799 113.199 20.6981 113.354 19.9012C113.483 19.2442 113.863 18.7588 114.387 18.375C115.157 17.8174 116.036 17.5555 116.963 17.4268C118.016 17.2801 119.06 17.3049 120.095 17.5465C121.766 17.9393 122.788 19.0636 123.044 20.7659C123.121 21.2761 123.15 21.7863 123.152 22.3011C123.152 24.3668 123.152 26.4303 123.152 28.496C123.152 28.8956 123.204 29.2862 123.364 29.6565C123.562 30.1148 123.917 30.3563 124.412 30.3744C124.763 30.3857 125.114 30.3812 125.465 30.3744C125.987 30.3654 126.347 30.108 126.549 29.6294C126.713 29.241 126.756 28.8279 126.756 28.4125C126.761 25.771 126.761 23.1274 126.756 20.4859C126.756 20.2895 126.738 20.0886 126.704 19.8944C126.572 19.1313 126.126 18.7814 125.278 18.7588C124.716 18.743 124.693 18.7159 124.758 18.156C124.77 18.068 124.79 18.0273 124.884 18.0296C125.613 18.0431 126.345 17.9777 127.069 18.0589C127.928 18.156 128.41 18.664 128.545 19.5309C128.563 19.6077 128.572 19.6844 128.592 19.8289Z" fill="#0064C8"/>
<path d="M95.0458 17.4404C96.1886 17.4811 97.2258 17.5623 98.1909 18.0229C99.2483 18.5309 99.7657 19.3865 99.6825 20.5063C99.6285 21.2288 99.1335 21.7706 98.4496 21.8767C98.2764 21.9038 98.2134 21.8722 98.2134 21.6848C98.2156 21.3326 98.1594 20.9872 98.0672 20.644C97.8152 19.7026 97.228 19.0795 96.2854 18.8402C95.0975 18.5399 93.9254 18.6189 92.8207 19.172C91.5474 19.811 91.3314 21.2581 92.3348 22.2763C92.9332 22.8813 93.6959 23.1974 94.4698 23.4977C95.5317 23.9108 96.6341 24.2134 97.6757 24.6807C98.3281 24.9719 98.9558 25.3083 99.4463 25.8411C100.569 27.0625 100.418 29.0718 99.129 30.2593C98.3911 30.9389 97.4957 31.2978 96.5238 31.4672C94.6543 31.79 92.8365 31.632 91.1132 30.7763C90.6497 30.546 90.2335 30.248 89.9321 29.8168C89.3044 28.9251 89.7836 27.8798 90.8657 27.7691C90.985 27.7579 91.0524 27.7759 91.1109 27.9046C91.8534 29.5256 93.1537 30.2751 94.8995 30.3225C95.7499 30.3451 96.5666 30.2187 97.3067 29.7717C98.5239 29.0357 98.6836 27.7059 97.678 26.7013C97.1763 26.2001 96.5463 25.9134 95.9029 25.6582C94.8275 25.2316 93.7027 24.9381 92.6363 24.4798C92.0311 24.2201 91.4507 23.9199 90.9557 23.4751C89.4709 22.1431 89.5159 19.9464 91.0524 18.6731C91.9591 17.9213 93.0367 17.6098 94.1818 17.4924C94.4968 17.4585 94.8208 17.4517 95.0458 17.4404Z" fill="#0064C8"/>
<path d="M106.908 31.4514C103.497 31.5259 101.221 29.126 100.598 26.1595C100.22 24.3556 100.418 22.6059 101.236 20.9511C102.404 18.5986 104.343 17.4405 106.942 17.375C108.013 17.3479 109.079 17.3908 110.118 17.7023C111.734 18.1855 112.157 19.5017 111.871 20.9059C111.736 21.5697 111.216 21.9715 110.553 22.0302C110.393 22.0438 110.334 22.0122 110.334 21.8338C110.337 21.3484 110.307 20.863 110.204 20.3844C110.026 19.5559 109.549 19.0118 108.719 18.8221C106.87 18.4 105.219 18.7092 103.916 20.2015C103.196 21.0278 102.764 22.0009 102.566 23.0733C102.226 24.9155 102.449 26.6674 103.518 28.2433C105.061 30.519 107.637 30.6161 109.347 29.5369C109.977 29.1396 110.442 28.5797 110.811 27.9407C110.919 27.7556 110.998 27.733 111.178 27.8504C111.876 28.3042 112.04 28.9341 111.619 29.6588C111.201 30.379 110.521 30.7515 109.77 31.0179C108.847 31.3475 107.882 31.4378 106.908 31.4514Z" fill="#0064C8"/>
<path d="M155.953 22.0231C155.707 20.147 154.823 18.8805 153.14 17.9865C152 17.3814 150.769 17.2459 149.503 17.3814C147.374 17.6072 145.653 18.5464 144.645 20.4766C143.345 22.9668 143.264 25.5383 144.447 28.1188C144.495 28.2226 144.564 28.3039 144.465 28.4326C143.73 29.3966 142.852 30.1393 141.588 30.2319C140.22 30.3312 139.156 29.803 138.683 28.4303C138.477 27.8275 138.38 27.2044 138.378 26.5723C138.369 24.1476 138.375 21.7206 138.369 19.2959C138.369 19.0995 138.427 19.0588 138.612 19.0611C139.529 19.0679 140.445 19.0724 141.363 19.0521C141.817 19.043 142.256 18.9279 142.598 18.5915C143.098 18.0971 142.906 17.3363 142.238 17.1353C142.155 17.1105 142.065 17.0586 142.013 17.1872C141.889 17.4988 141.606 17.6094 141.325 17.702C140.441 17.9887 139.525 18.0113 138.607 18.0339C138.418 18.0384 138.366 17.991 138.371 17.7991C138.382 17.106 138.369 16.4106 138.38 15.7175C138.384 15.5234 138.326 15.4692 138.139 15.485C137.952 15.5008 137.761 15.503 137.572 15.485C137.331 15.4602 137.201 15.5121 137.23 15.7943C137.246 15.9343 137.203 16.081 137.178 16.2232C137.01 17.2595 136.398 17.851 135.356 17.9819C135.113 18.0135 134.868 18.0316 134.596 18.0587C134.839 18.2235 135.1 18.3545 135.201 18.587C135.417 19.0882 135.806 19.122 136.247 19.0701C136.467 19.043 136.533 19.1175 136.533 19.3456C136.524 21.9057 136.528 24.4659 136.526 27.0283C136.526 27.3624 136.539 27.6943 136.589 28.0262C136.821 29.5794 137.619 30.6812 139.142 31.1598C140.245 31.5052 141.372 31.5323 142.495 31.2524C143.631 30.9702 144.567 30.3674 145.305 29.4192C145.368 29.4914 145.415 29.5546 145.469 29.6111C146.029 30.198 146.677 30.6631 147.431 30.9634C149.163 31.6542 150.929 31.5684 152.699 31.1485C153.487 30.9611 154.22 30.6405 154.776 30.0197C155.338 29.3921 155.523 28.6583 154.807 28.033C154.465 27.7327 154.456 27.7304 154.2 28.1097C154.139 28.2 154.076 28.2858 154.016 28.3761C152.555 30.5231 148.558 31.1959 146.668 28.3174C146.096 27.4482 146.153 27.7643 146.641 26.9199C146.681 26.85 146.733 26.7867 146.778 26.719C147.482 25.6918 148.432 25.15 149.696 25.1071C151.188 25.0574 152.679 25.0754 154.171 25.0574C154.412 25.0551 154.657 25.0371 154.895 25.0055C155.442 24.9332 155.842 24.651 155.964 24.0934C156.018 23.8879 156.009 22.127 155.953 22.0231ZM153.611 23.7683C153.217 23.7976 152.821 23.7863 152.425 23.7909C151.57 23.7976 150.715 23.7773 149.865 23.8134C148.148 23.8879 146.753 24.5946 145.721 26.0598C145.581 25.4773 145.543 24.9219 145.565 24.3643C145.617 23.0978 145.876 21.8831 146.522 20.7769C147.599 18.9301 149.647 18.1219 151.608 18.7811C152.954 19.2327 153.665 20.2576 154.016 21.5738C154.151 22.0796 154.205 22.6011 154.189 23.1271C154.175 23.5222 154.002 23.7389 153.611 23.7683Z" fill="#0064C8"/>
<path d="M151.389 22.9195C151.029 22.9195 150.646 22.8405 150.306 22.6125C149.445 22.0368 149.512 20.7612 150.441 20.269C150.995 19.9755 151.58 19.9665 152.165 20.1719C152.808 20.3977 153.175 20.9915 153.098 21.6439C153.015 22.3415 152.491 22.8202 151.728 22.8969C151.627 22.9082 151.528 22.9105 151.389 22.9195Z" fill="#0064C8"/>
<path d="M23.4766 49.9998C23.6208 49.9049 23.765 49.9411 23.9092 49.9998C23.765 49.9998 23.6208 49.9998 23.4766 49.9998Z" fill="#0064C8"/>
<path d="M35.7197 43.8212C35.7242 42.8617 36.4734 42.1212 37.4363 42.128C38.3902 42.1325 39.1326 42.8911 39.1281 43.8528C39.1236 44.801 38.3542 45.5618 37.4048 45.5528C36.4576 45.546 35.7175 44.7852 35.7197 43.8212Z" fill="#0064C8"/>
<path d="M1.72987 16.0635C2.68601 16.0657 3.43293 16.822 3.42393 17.7815C3.41718 18.741 2.66576 19.4838 1.70737 19.4816C0.762476 19.4793 0.00430949 18.7117 0.00880899 17.759C0.0133085 16.804 0.769225 16.0612 1.72987 16.0635Z" fill="#0064C8"/>
<path d="M0 32.153C0 31.198 0.755916 30.4395 1.70531 30.4395C2.65471 30.4395 3.40612 31.2003 3.40837 32.1598C3.41062 33.1102 2.64796 33.8733 1.69856 33.8733C0.749167 33.8733 0 33.1125 0 32.153Z" fill="#0064C8"/>
<path d="M22.1191 1.69775C22.1214 0.733739 22.8616 -0.00225246 23.8312 5.1799e-06C24.7829 5.1799e-06 25.532 0.758573 25.5275 1.71807C25.523 2.6708 24.7649 3.42259 23.811 3.41808C22.8503 3.41356 22.1169 2.66854 22.1191 1.69775Z" fill="#0064C8"/>
<path d="M8.46387 6.12971C8.46612 5.16796 9.21304 4.42519 10.1759 4.42971C11.1298 4.43197 11.8745 5.18828 11.8722 6.14777C11.87 7.10276 11.1186 7.84778 10.1579 7.84552C9.20179 7.84326 8.46162 7.09372 8.46387 6.12971Z" fill="#0064C8"/>
<path d="M39.173 6.18577C39.1685 7.12495 38.3765 7.9061 37.4474 7.89029C36.5002 7.87449 35.7533 7.10463 35.7578 6.15191C35.7623 5.20596 36.5407 4.4361 37.4811 4.44739C38.4193 4.45868 39.1775 5.2353 39.173 6.18577Z" fill="#0064C8"/>
<path d="M11.8273 43.8277C11.8228 44.7827 11.0647 45.5254 10.104 45.5164C9.15237 45.5074 8.4167 44.7511 8.41895 43.7848C8.4212 42.8366 9.19062 42.0848 10.1445 42.0938C11.0984 42.1029 11.8318 42.8592 11.8273 43.8277Z" fill="#0064C8"/>
<path d="M45.8904 16.1016C46.8353 16.1038 47.5935 16.8714 47.5912 17.8241C47.589 18.7746 46.8263 19.5354 45.8769 19.5332C44.9342 19.5309 44.1716 18.7611 44.1738 17.8106C44.1783 16.8601 44.9432 16.0993 45.8904 16.1016Z" fill="#0064C8"/>
<path d="M47.5733 32.2145C47.5688 33.1717 46.8152 33.9213 45.859 33.919C44.9141 33.9167 44.1537 33.1469 44.1582 32.1964C44.1605 31.2482 44.9276 30.4896 45.8793 30.4942C46.8309 30.4987 47.5778 31.255 47.5733 32.2145Z" fill="#0064C8"/>
<path d="M9.53711 9.75078C10.5945 8.61067 13.4607 6.65556 14.7813 6.16113C14.7835 6.24015 14.725 6.2695 14.689 6.31014C13.7644 7.32608 13.2267 8.51811 13.067 9.88173C13.0557 9.98784 13.0737 10.1075 12.896 10.0601C11.8139 9.77336 10.7092 9.68305 9.53711 9.75078Z" fill="#0064C8"/>
<path d="M3.14941 27.7354C3.44413 28.2411 3.77484 28.7197 4.17755 29.1441C4.74224 29.7379 5.39467 30.2075 6.14383 30.5393C6.27657 30.598 6.35756 30.6364 6.24732 30.8012C5.93686 31.264 5.68938 31.7652 5.46891 32.2777C5.25518 32.7812 5.08195 33.3004 4.93122 33.8897C3.99757 31.9052 3.41713 29.8688 3.14941 27.7354Z" fill="#0064C8"/>
<path d="M8.7002 39.4068C8.81493 39.3639 8.88917 39.4361 8.96567 39.47C10.167 40.0051 11.4134 40.1495 12.7003 39.8877C12.9117 39.8448 12.9995 39.8448 13.0152 40.1157C13.0715 41.109 13.2919 42.0731 13.6429 43.0055C13.6676 43.0732 13.6901 43.1409 13.7081 43.2087C13.7126 43.2245 13.7014 43.2425 13.6969 43.2741C11.8363 42.2446 10.1828 40.9533 8.7002 39.4068Z" fill="#0064C8"/>
<path d="M42.0993 34.9863C42.1195 34.6138 42.1443 34.3226 42.1488 34.0291C42.1668 32.9138 41.8833 31.8753 41.3344 30.909C41.2466 30.7533 41.2286 30.6923 41.4266 30.6133C42.3827 30.2317 43.2646 29.7147 44.0656 29.0668C44.1173 29.0239 44.1623 28.9607 44.2635 28.9629C43.8586 31.0603 43.1477 33.0425 42.0993 34.9863Z" fill="#0064C8"/>
<path d="M44.372 22.1767C43.7061 20.9237 42.7139 20.0206 41.4338 19.4269C41.3416 19.384 41.2156 19.3727 41.3191 19.2101C41.9288 18.2574 42.3607 17.2257 42.6577 16.0811C43.5576 18.0204 44.1515 19.9981 44.4283 22.0706C44.435 22.118 44.4777 22.188 44.372 22.1767Z" fill="#0064C8"/>
<path d="M26.3897 45.7222C24.2277 45.9976 22.1219 45.9231 20.0049 45.5438C20.1534 45.4332 20.3221 45.4445 20.4706 45.4084C21.7057 45.1058 22.7473 44.4782 23.6 43.5368C23.7125 43.4126 23.771 43.3742 23.8992 43.53C24.5764 44.3586 25.3728 45.0562 26.2727 45.6341C26.2997 45.6477 26.3244 45.6703 26.3897 45.7222Z" fill="#0064C8"/>
<path d="M38.001 40.2583C37.5713 40.7346 37.0606 41.1184 36.5612 41.5112C35.4835 42.3601 34.3227 43.0758 33.0988 43.6921C32.9976 43.7441 32.8918 43.7869 32.7568 43.8479C34.1404 41.9334 34.1404 41.9334 34.5656 39.8857C35.614 40.1679 36.6826 40.2786 37.7648 40.247C37.8458 40.2312 37.9245 40.2154 38.001 40.2583Z" fill="#0064C8"/>
<path d="M23.8312 6.60563C23.4442 6.13605 23.0438 5.71161 22.6073 5.32104C22.1776 4.93949 21.7164 4.60085 21.1787 4.2464C23.343 3.98677 25.4307 4.04321 27.5163 4.45184C26.0539 4.75663 24.8278 5.45649 23.8312 6.60563Z" fill="#0064C8"/>
<path d="M5.45787 15.3249C5.34538 16.6863 5.60185 17.9663 6.30152 19.1493C6.35552 19.2397 6.35102 19.2803 6.24303 19.3232C5.2014 19.7363 4.2475 20.303 3.37685 21.0232C3.29586 20.2624 4.52647 16.7111 5.40387 15.1533C5.53211 15.1759 5.46237 15.2594 5.45787 15.3249Z" fill="#0064C8"/>
<path d="M38.7966 10.5276C38.3377 10.3831 37.899 10.216 37.4378 10.1031C37.1116 10.0241 36.7809 9.99701 36.4524 9.96766C35.8945 9.92025 35.341 9.9767 34.7943 10.0964C34.6818 10.1212 34.6009 10.1528 34.5919 9.97218C34.5626 9.41454 34.4794 8.86368 34.3556 8.31733C34.2319 7.77775 34.0677 7.24946 33.8359 6.66699C35.7235 7.71905 37.3635 8.98333 38.7966 10.5276Z" fill="#0064C8"/>
<path d="M44.694 35.084C44.4982 34.9282 44.2553 34.9801 44.0708 35.2284C43.7761 35.628 43.4454 35.996 43.0854 36.3369C41.902 37.459 40.5162 38.195 38.9211 38.5359C38.8199 38.5652 38.8131 38.563 38.8131 38.4862C39.4341 38.0911 39.965 37.5967 40.388 36.9917C41.7086 35.1088 41.7266 32.6005 40.4194 30.6138C40.289 30.4152 40.325 30.3655 40.5297 30.2955C41.1596 30.081 41.7648 29.7988 42.325 29.4398C45.2789 27.5502 46.8807 24.8704 47.0067 21.3372C47.018 21.0211 46.8582 20.836 46.6108 20.836C46.3565 20.836 46.2036 21.0166 46.2013 21.3327C46.1811 23.1839 45.6051 24.8501 44.5342 26.3491C44.4308 26.4959 44.3183 26.6359 44.2035 26.7758C44.0955 26.9068 43.9808 27.0332 43.8683 27.1596C44.0685 26.5523 44.2125 25.9518 44.2485 25.3287C44.3835 22.9333 42.9887 20.7502 40.7232 19.8087C40.3115 19.6372 40.3115 19.6372 40.5679 19.2511C42.7434 15.9504 42.6984 11.5525 40.4622 8.38508C40.2665 8.10965 40.0415 8.03514 39.83 8.17963C39.6208 8.32186 39.605 8.57246 39.794 8.84338C40.8964 10.4237 41.4071 12.1847 41.3733 14.1059C41.3688 14.3769 41.3351 14.6455 41.3171 14.9164C40.9481 13.6454 40.3002 12.5865 39.2518 11.8054C37.749 10.6856 36.0752 10.3989 34.2709 10.8775C34.0437 10.9385 33.9964 10.8911 34.0009 10.6743C34.0122 10.295 33.9649 9.91802 33.9042 9.54551C33.3822 6.30127 31.7084 3.86754 28.8265 2.28267C28.3855 2.0411 27.9176 1.85146 27.4361 1.7002C27.1887 1.62344 26.9907 1.72503 26.9142 1.94628C26.8377 2.16527 26.9367 2.36395 27.1729 2.46328C27.2224 2.4836 27.2742 2.49941 27.3259 2.51747C29.2989 3.21959 30.8153 4.48613 31.9131 6.26289C31.9649 6.34643 32.0346 6.4277 32.0459 6.55413C29.5644 4.42517 25.7758 4.89476 23.8298 7.57233C23.8163 7.56104 23.7983 7.55427 23.787 7.54072C23.7533 7.50008 23.7196 7.45719 23.6858 7.41429C22.7027 6.13647 21.4878 5.14085 20.0232 4.46581C17.8027 3.44084 15.5147 3.27378 13.1682 3.9759C12.8623 4.06847 12.7363 4.26262 12.806 4.50645C12.8758 4.74802 13.0985 4.8451 13.3932 4.75253C14.8308 4.30552 16.2864 4.23779 17.7577 4.54709C18.4011 4.68254 19.0266 4.87896 19.6138 5.19503C19.2988 5.19503 18.9883 5.20406 18.6779 5.23341C15.8882 5.48852 13.6947 7.8455 13.6497 10.6563C13.6474 10.8436 13.6272 10.9091 13.4134 10.8436C12.1423 10.4621 10.842 10.3379 9.52138 10.4915C6.79693 10.8098 4.58318 12.0447 2.90261 14.2233C2.69564 14.492 2.69789 14.7291 2.89811 14.8893C3.10959 15.0587 3.33007 14.9977 3.55279 14.7042C3.56854 14.6816 3.58429 14.6613 3.60229 14.6387C4.8689 13.0065 6.51346 11.9612 8.51124 11.4668C8.56299 11.4532 8.61473 11.4329 8.66647 11.4261C8.72047 11.4193 8.77446 11.4239 8.87345 11.4239C7.46511 12.3314 6.5877 13.5551 6.29974 15.1693C6.01402 16.77 6.38748 18.2329 7.29863 19.5627C7.26038 19.5898 7.24688 19.6033 7.23113 19.6101C7.17264 19.6327 7.11415 19.6552 7.05565 19.6755C4.96113 20.4454 3.29182 21.7571 2.0837 23.64C1.10281 25.1684 0.598869 26.8481 0.58987 28.67C0.58762 28.9567 0.729355 29.1193 0.970078 29.1306C1.21755 29.1418 1.38403 28.9657 1.39753 28.679C1.39753 28.661 1.39753 28.6429 1.39753 28.6248C1.42003 26.6336 2.0837 24.8704 3.29857 23.3104C3.41556 23.1591 3.51905 22.9875 3.75527 22.8453C3.16808 24.4121 3.18608 25.9134 3.8925 27.3718C4.59893 28.8303 5.75755 29.7898 7.27388 30.3203C7.26713 30.3429 7.26713 30.3632 7.25813 30.3768C7.23563 30.4151 7.20864 30.4513 7.18389 30.4897C5.64056 32.7902 5.10287 35.3029 5.61581 38.0302C5.86328 39.3396 6.38973 40.5362 7.15914 41.6221C7.33237 41.8659 7.5236 41.9246 7.73058 41.8117C7.97805 41.6763 8.00055 41.4189 7.79357 41.1164C6.52696 39.2764 6.04551 37.2423 6.27724 35.0185C6.36723 35.0636 6.35823 35.1427 6.37623 35.2081C6.70019 36.4024 7.33462 37.4003 8.32226 38.1476C9.82959 39.2877 11.5124 39.5586 13.3257 39.098C13.5237 39.0484 13.6069 39.0258 13.6002 39.2832C13.5844 39.9243 13.6722 40.561 13.8274 41.1841C14.6801 44.6135 16.7183 46.9975 20.0435 48.2347C20.3652 48.3544 20.5924 48.2776 20.6756 48.0383C20.7679 47.7719 20.6441 47.58 20.3044 47.4649C18.8331 46.9614 17.5957 46.1103 16.5766 44.9386C16.1851 44.4893 15.8364 44.0062 15.571 43.4598C16.8488 44.4735 18.2819 44.9228 19.9017 44.7015C21.5148 44.4825 22.7814 43.6652 23.769 42.3761C24.1628 42.8999 24.57 43.383 25.0447 43.8007C27.7759 46.2028 30.885 46.993 34.4104 45.9951C34.7433 45.9003 34.8671 45.7107 34.7816 45.4578C34.6961 45.2004 34.5026 45.1282 34.1629 45.2321C32.5206 45.7355 30.8715 45.7423 29.2224 45.2772C28.7815 45.153 28.345 45.0085 27.9423 44.7647C29.5734 44.8573 31.002 44.3832 32.1876 43.2544C33.3732 42.1255 33.9334 40.7123 33.9649 39.0664C35.5375 39.5518 37.1168 39.6828 38.7209 39.3893C41.1866 38.9377 43.1934 37.7254 44.7165 35.7229C44.9054 35.47 44.8942 35.2442 44.694 35.084ZM43.4454 24.9923C43.4454 27.1574 41.929 29.1102 39.8278 29.6588C39.6905 29.695 39.587 29.6724 39.4791 29.5979C38.2169 28.7309 37.4093 27.5412 37.1416 26.0398C36.7321 23.7325 37.5263 21.8677 39.3531 20.4251C39.5128 20.2987 39.6568 20.2851 39.848 20.3393C41.9695 20.9331 43.4454 22.8408 43.4454 24.9923ZM33.7174 12.1012C33.7669 11.9386 33.8457 11.846 34.0077 11.7851C34.5858 11.5684 35.1798 11.4532 36.0954 11.451C37.7602 11.5255 39.2878 12.3653 40.1337 14.1737C40.9841 15.9911 40.6939 17.7295 39.5016 19.3256C39.4003 19.4633 39.2721 19.4814 39.1236 19.4791C36.9998 19.4611 35.3418 18.567 34.2304 16.7519C33.3395 15.298 33.2202 13.7267 33.7174 12.1012ZM24.3135 8.29703C25.3304 6.67379 27.3552 5.74815 29.1842 6.07777C31.1505 6.42996 32.6781 7.91549 33.0785 9.86835C33.1595 10.2657 33.191 10.6676 33.191 11.0762C33.191 11.2749 33.1055 11.3968 32.9638 11.5029C32.1246 12.135 31.182 12.4985 30.1403 12.6069C29.9536 12.6272 29.7646 12.6294 29.5757 12.6385C27.1459 12.6317 24.9817 11.0175 24.2595 8.67631C24.21 8.52957 24.237 8.4212 24.3135 8.29703ZM18.3944 6.07777C20.2122 5.73235 22.363 6.70539 23.2944 8.288C23.3573 8.39411 23.3528 8.48667 23.3213 8.59278C22.9974 9.75095 22.354 10.6969 21.4158 11.4374C19.427 13.011 16.6621 13.0449 14.6283 11.5322C14.4191 11.3765 14.4191 11.3765 14.4191 10.8843C14.4191 8.51376 16.0682 6.52027 18.3944 6.07777ZM7.00616 16.1807C7.00841 13.7109 8.89145 11.6677 11.3414 11.4577C12.0906 11.3945 12.8083 11.4984 13.5147 11.7377C13.6744 11.7919 13.7689 11.8799 13.8229 12.0402C14.4281 13.8463 14.2144 15.5531 13.1277 17.1086C12.0164 18.7025 10.4415 19.4724 8.50449 19.5062C8.32001 19.5085 8.20752 19.443 8.09954 19.303C7.38187 18.3864 7.00616 17.3502 7.00616 16.1807ZM4.14673 24.972C4.14673 22.8092 5.68555 20.836 7.76882 20.3122C7.92181 20.2738 8.02979 20.3235 8.14228 20.4002C9.25141 21.1678 9.98483 22.2109 10.3515 23.5022C10.995 25.7712 10.1063 28.232 8.18053 29.5911C8.07029 29.6679 7.97355 29.6972 7.83632 29.6634C5.6968 29.1396 4.14673 27.1732 4.14673 24.972ZM13.8679 37.8902C13.8229 38.0392 13.7464 38.1273 13.5957 38.1882C10.671 39.3419 7.48761 37.529 7.0399 34.4179C6.83968 33.034 7.22213 31.7788 8.07479 30.668C8.20977 30.4942 8.37851 30.4964 8.55399 30.4964C10.0096 30.4987 11.2874 30.9863 12.3561 31.9752C13.5439 33.0769 14.1379 34.4563 14.1536 36.0818C14.1671 36.7027 14.0501 37.301 13.8679 37.8902ZM23.2584 41.7056C22.2685 43.1483 20.9051 43.9023 19.58 43.9475C16.7903 43.9475 14.7475 42.1391 14.4596 39.7934C14.4326 39.5699 14.4371 39.3441 14.4011 39.1229C14.3426 38.7504 14.5203 38.5314 14.8128 38.3304C17.9129 36.1992 22.1695 37.6644 23.3213 41.2586C23.3798 41.4302 23.3596 41.5611 23.2584 41.7056ZM21.4878 37.5741C20.4867 36.9172 19.382 36.583 18.1852 36.513C18.6014 36.3324 19.0401 36.2331 19.4788 36.1518C21.1346 35.8403 22.7679 35.9351 24.3787 36.4363C24.6757 36.5288 24.8917 36.434 24.9659 36.1857C25.0357 35.9509 24.9007 35.7454 24.6015 35.6597C21.2201 34.6663 18.0659 35.1833 15.1233 37.1C15.085 37.1249 15.049 37.152 15.013 37.1768C14.968 37.2039 14.9208 37.2581 14.869 37.2197C14.824 37.1858 14.8488 37.1271 14.8555 37.0729C15.2087 34.6302 14.4191 32.6299 12.5225 31.0654C12.5113 31.0563 12.5023 31.0405 12.4888 31.027C12.581 30.9818 12.6598 31.0337 12.7408 31.0608C14.6913 31.7562 16.2954 32.9234 17.5417 34.5828C17.724 34.8243 17.9399 34.8921 18.1379 34.7656C18.3651 34.6234 18.3921 34.3751 18.1987 34.1109C17.625 33.3298 16.9568 32.6367 16.1941 32.0429C14.2571 30.5393 12.0591 29.7627 9.61362 29.6769C9.55962 29.6746 9.50563 29.6724 9.45164 29.6656C9.43814 29.6634 9.42464 29.6476 9.39089 29.625C9.84084 29.1576 10.2525 28.6632 10.5608 28.092C11.3437 26.6449 11.5529 25.121 11.1817 23.5158C11.1727 23.4729 11.1682 23.4277 11.1614 23.3826C11.1479 23.3329 11.1075 23.272 11.2087 23.2765C12.4326 25.0081 13.076 26.9339 13.1075 29.0583C13.112 29.2863 13.157 29.476 13.3977 29.5437C13.6969 29.6272 13.9174 29.4421 13.9174 29.1057C13.9151 28.0717 13.7622 27.058 13.4629 26.0714C12.7678 23.7867 11.4674 21.9174 9.59562 20.4431C9.52813 20.389 9.43814 20.3574 9.39989 20.258C11.9084 19.8268 13.6429 18.4406 14.5968 16.034C14.6441 16.2778 14.6126 16.4945 14.6036 16.7067C14.5923 16.9235 14.5698 17.138 14.5428 17.3524C14.3268 19.0547 13.7352 20.6125 12.743 22.0122C12.5653 22.2628 12.5878 22.4841 12.7903 22.6308C13.004 22.7866 13.2245 22.7347 13.4067 22.475C14.5653 20.8337 15.2155 19.0095 15.382 17.007C15.5012 15.5621 15.3347 14.1488 14.914 12.7626C14.9073 12.7378 14.9073 12.713 14.905 12.6723C17.1615 13.7899 19.355 13.7063 21.508 12.3879C21.5395 12.5075 21.4428 12.5685 21.3888 12.6362C20.1627 14.2075 18.6216 15.3454 16.7431 16.0159C16.7003 16.0317 16.6576 16.0453 16.6171 16.0611C16.3134 16.1672 16.1919 16.3546 16.2706 16.5984C16.3539 16.8512 16.5698 16.9325 16.8893 16.8241C17.805 16.5126 18.6644 16.0904 19.463 15.5463C21.4473 14.1895 22.8444 12.3698 23.6881 10.1167C23.7286 10.0106 23.769 9.90447 23.814 9.78707C25.4294 12.336 26.8557 13.2638 29.4699 13.4399C29.0447 13.6273 28.6443 13.7086 28.2483 13.7899C26.5497 14.133 24.8737 14.054 23.2179 13.537C22.8691 13.4286 22.6149 13.5731 22.6082 13.8779C22.6037 14.0969 22.7139 14.2256 22.9209 14.2911C24.1763 14.6907 25.4586 14.8623 26.7725 14.7878C28.9165 14.6681 30.8625 13.9818 32.6263 12.7581C32.6466 12.7446 32.6713 12.7333 32.7276 12.7039C32.3676 15.1964 33.1078 17.2621 35.011 18.8944C34.8558 18.9192 34.8536 18.9192 34.7186 18.8673C32.8355 18.1652 31.2742 17.0228 30.0593 15.4131C29.9784 15.3047 29.9041 15.1874 29.7601 15.1557C29.5869 15.1196 29.4362 15.167 29.3304 15.3138C29.2112 15.4808 29.2247 15.6479 29.3462 15.8127C29.7669 16.3884 30.2371 16.9212 30.768 17.3998C32.5971 19.0502 34.7388 19.9939 37.1843 20.24C37.5128 20.2738 37.8435 20.2874 38.2192 20.3145C36.4486 22.1228 35.8592 24.2473 36.4396 26.69C36.3362 26.7081 36.3227 26.6291 36.2934 26.5862C35.128 24.8772 34.4981 22.992 34.4734 20.9127C34.4689 20.5854 34.3339 20.4115 34.0774 20.4048C33.8119 20.398 33.6567 20.5831 33.6657 20.9172C33.7624 24.4414 35.2248 27.2815 37.9402 29.494C38.0032 29.546 38.0662 29.5956 38.1292 29.6476C38.1427 29.6588 38.1472 29.6769 38.1719 29.7153C35.677 30.1442 33.9469 31.5282 32.9795 33.9416C32.9795 33.6662 32.9705 33.4494 32.9818 33.2327C32.993 33.0069 33.0155 32.7834 33.0448 32.5599C33.2675 30.887 33.8524 29.3563 34.8266 27.9746C35.0133 27.7105 34.9953 27.4825 34.7883 27.3335C34.5813 27.1822 34.3429 27.2499 34.1539 27.5231C32.6421 29.7085 32.0009 32.1287 32.2034 34.7792C32.2686 35.6258 32.4418 36.4476 32.6893 37.301C30.3923 36.1654 28.1808 36.2602 26.0233 37.5899C26.3833 37.0323 26.8242 36.5537 27.2989 36.1089C28.3563 35.1156 29.5712 34.3841 30.9435 33.9122C31.0897 33.8626 31.2405 33.8174 31.2967 33.6504C31.3485 33.4946 31.3372 33.3478 31.2225 33.2214C31.0897 33.0724 30.9278 33.0634 30.7523 33.1221C30.0953 33.3433 29.4632 33.6187 28.8602 33.9619C26.4575 35.3323 24.8219 37.328 23.7623 40.2043C23.2269 39.1184 22.4867 38.2288 21.4878 37.5741ZM29.0447 43.9158C28.8422 43.9497 28.633 43.9497 28.4035 43.9678C26.6802 43.9091 25.3101 43.1618 24.318 41.7169C24.246 41.6131 24.2257 41.516 24.264 41.3895C24.8107 39.5767 25.9693 38.3146 27.7376 37.6712C29.5937 36.9962 31.3417 37.31 32.957 38.432C33.11 38.5381 33.1573 38.6646 33.164 38.8362C33.2742 41.385 31.5599 43.5027 29.0447 43.9158ZM35.3305 38.5178C34.8986 38.4907 34.4824 38.3779 34.0729 38.2356C33.9132 38.1814 33.8254 38.0866 33.7692 37.9286C33.5442 37.3213 33.4542 36.6936 33.452 36.0502C33.4542 33.192 35.5847 30.8125 38.4374 30.5145C39.4948 30.4039 39.2968 30.2819 39.857 31.2211C40.8514 32.885 40.8964 34.6211 39.8683 36.2828C38.8379 37.9489 37.263 38.6375 35.3305 38.5178Z" fill="#FF6E00"/>
<path d="M16.3109 41.5092C15.762 41.4912 15.3593 41.0397 15.3818 40.464C15.402 39.9447 15.8565 39.5361 16.3919 39.5564C16.9296 39.5745 17.3413 40.0237 17.3233 40.5746C17.3075 41.1119 16.8576 41.5273 16.3109 41.5092Z" fill="#0064C8"/>
<path d="M39.875 27.2881C39.8728 26.7372 40.2912 26.3037 40.8334 26.297C41.3666 26.2902 41.812 26.7327 41.8188 27.27C41.8233 27.8118 41.3936 28.2498 40.8492 28.2521C40.2957 28.2588 39.8773 27.8434 39.875 27.2881Z" fill="#0064C8"/>
<path d="M20.7065 8.9923C20.1508 8.99456 19.7301 8.58367 19.7256 8.02829C19.7211 7.49322 20.1621 7.04621 20.6975 7.04395C21.233 7.0417 21.6852 7.48871 21.6852 8.01925C21.6852 8.55883 21.2532 8.99004 20.7065 8.9923Z" fill="#0064C8"/>
<path d="M36.2619 35.921C36.7996 35.9255 37.2113 36.3454 37.2135 36.885C37.2158 37.4404 36.7658 37.8829 36.2191 37.8693C35.677 37.8558 35.2585 37.4133 35.2698 36.8669C35.2788 36.3138 35.6995 35.9142 36.2619 35.921Z" fill="#0064C8"/>
<path d="M30.2686 9.44338C30.2686 8.888 30.6825 8.46582 31.2337 8.46582C31.7804 8.46582 32.2101 8.89026 32.2101 9.43661C32.2123 9.9807 31.7804 10.4164 31.2382 10.4164C30.687 10.4164 30.2686 9.99876 30.2686 9.44338Z" fill="#0064C8"/>
<path d="M7.71628 22.7002C7.71403 23.2465 7.28208 23.6777 6.73764 23.6732C6.1977 23.6687 5.768 23.2307 5.7725 22.6866C5.777 22.147 6.22245 21.7023 6.75114 21.7091C7.29333 21.7158 7.71853 22.1538 7.71628 22.7002Z" fill="#0064C8"/>
<path d="M12.3129 13.0876C12.3129 13.634 11.8832 14.0674 11.3433 14.0674C10.8078 14.0674 10.3691 13.6227 10.3691 13.0831C10.3691 12.539 10.7966 12.1123 11.3478 12.1123C11.899 12.1101 12.3152 12.53 12.3129 13.0876Z" fill="#0064C8"/>
<path d="M39.9056 16.8011C39.9011 17.3452 39.4624 17.7787 38.9225 17.7742C38.3848 17.7696 37.9416 17.3204 37.9483 16.7876C37.9551 16.2502 38.4095 15.7987 38.9337 15.8078C39.4737 15.819 39.9101 16.2661 39.9056 16.8011Z" fill="#0064C8"/>
<path d="M26.8782 42.9201C26.3337 42.9178 25.9018 42.4821 25.9063 41.9425C25.9108 41.4074 26.3585 40.9672 26.8939 40.9717C27.4361 40.9762 27.8591 41.4074 27.8568 41.9583C27.8568 42.5092 27.4361 42.9223 26.8782 42.9201Z" fill="#0064C8"/>
<path d="M8.64996 34.1537C8.11002 34.1492 7.67132 33.7044 7.67582 33.1694C7.68032 32.6366 8.13252 32.1918 8.66571 32.1963C9.20115 32.2008 9.6421 32.6501 9.63535 33.1852C9.6286 33.7338 9.1944 34.1582 8.64996 34.1537Z" fill="#0064C8"/>
<path d="M22.0635 48.2392C22.068 47.2797 22.8172 46.5392 23.7801 46.5459C24.7339 46.5505 25.4764 47.309 25.4719 48.2708C25.4674 49.219 24.698 49.9798 23.7486 49.9708C22.7992 49.9618 22.059 49.2009 22.0635 48.2392Z" fill="#0064C8"/>
</svg>
